<mxfile host="app.diagrams.net" modified="2023-04-16T16:59:48.241Z" agent="Mozilla/5.0 (Windows NT 10.0; Win64; x64) AppleWebKit/537.36 (KHTML, like Gecko) Chrome/111.0.0.0 Safari/537.36 OPR/97.0.0.0" etag="Y6yciYnVUIj0uxt73neh" version="21.1.5" type="device">
  <diagram name="PÃ¡gina-1" id="5GI5V0CajnrPjTomOsMh">
    <mxGraphModel dx="493" dy="514" grid="1" gridSize="10" guides="1" tooltips="1" connect="1" arrows="1" fold="1" page="1" pageScale="1" pageWidth="827" pageHeight="1169" math="0" shadow="0">
      <root>
        <mxCell id="0" />
        <mxCell id="1" parent="0" />
        <mxCell id="V9YfRGX8boSpPm_3hj_s-1" value="&lt;h1&gt;Suma variables&lt;/h1&gt;&lt;p&gt;Inicio&lt;/p&gt;&lt;p&gt;&lt;span style=&quot;white-space: pre;&quot;&gt;	&lt;/span&gt;- Asigno valor de varA y varB &lt;span style=&quot;white-space: pre;&quot;&gt;	&lt;/span&gt;e&amp;nbsp;&lt;span style=&quot;background-color: initial;&quot;&gt;imprimo el valor de las dos&lt;/span&gt;&lt;/p&gt;&lt;p&gt;&lt;span style=&quot;white-space: pre;&quot;&gt;	&lt;/span&gt;- calculo el valor de la &lt;span style=&quot;white-space: pre;&quot;&gt;	&lt;/span&gt;tercera variable&lt;/p&gt;&lt;p&gt;&lt;span style=&quot;white-space: pre;&quot;&gt;	&lt;/span&gt;- imprimo el valor de la &lt;span style=&quot;white-space: pre;&quot;&gt;	&lt;/span&gt;tercera&lt;/p&gt;&lt;p&gt;Fin&lt;/p&gt;" style="text;html=1;strokeColor=none;fillColor=none;spacing=5;spacingTop=-20;whiteSpace=wrap;overflow=hidden;rounded=0;" vertex="1" parent="1">
          <mxGeometry x="40" y="40" width="190" height="250" as="geometry" />
        </mxCell>
        <mxCell id="V9YfRGX8boSpPm_3hj_s-3" value="Inicio" style="ellipse;whiteSpace=wrap;html=1;" vertex="1" parent="1">
          <mxGeometry x="500" y="70" width="100" height="50" as="geometry" />
        </mxCell>
        <mxCell id="V9YfRGX8boSpPm_3hj_s-4" value="Fin" style="ellipse;whiteSpace=wrap;html=1;" vertex="1" parent="1">
          <mxGeometry x="500" y="460" width="100" height="50" as="geometry" />
        </mxCell>
        <mxCell id="V9YfRGX8boSpPm_3hj_s-5" value="" style="endArrow=classic;html=1;rounded=0;exitX=0.5;exitY=1;exitDx=0;exitDy=0;" edge="1" parent="1" source="V9YfRGX8boSpPm_3hj_s-3">
          <mxGeometry width="50" height="50" relative="1" as="geometry">
            <mxPoint x="390" y="220" as="sourcePoint" />
            <mxPoint x="550" y="160" as="targetPoint" />
          </mxGeometry>
        </mxCell>
        <mxCell id="V9YfRGX8boSpPm_3hj_s-6" value="Valor variable A = 11&lt;br&gt;Valor variable B = 12" style="shape=parallelogram;perimeter=parallelogramPerimeter;whiteSpace=wrap;html=1;fixedSize=1;" vertex="1" parent="1">
          <mxGeometry x="470" y="160" width="160" height="60" as="geometry" />
        </mxCell>
        <mxCell id="V9YfRGX8boSpPm_3hj_s-9" value="" style="endArrow=classic;html=1;rounded=0;exitX=0.5;exitY=1;exitDx=0;exitDy=0;" edge="1" parent="1" source="V9YfRGX8boSpPm_3hj_s-6">
          <mxGeometry width="50" height="50" relative="1" as="geometry">
            <mxPoint x="460" y="310" as="sourcePoint" />
            <mxPoint x="550" y="260" as="targetPoint" />
          </mxGeometry>
        </mxCell>
        <mxCell id="V9YfRGX8boSpPm_3hj_s-10" value="Var A + Var B" style="rounded=0;whiteSpace=wrap;html=1;" vertex="1" parent="1">
          <mxGeometry x="490" y="260" width="120" height="60" as="geometry" />
        </mxCell>
        <mxCell id="V9YfRGX8boSpPm_3hj_s-11" value="" style="endArrow=classic;html=1;rounded=0;exitX=0.5;exitY=1;exitDx=0;exitDy=0;" edge="1" parent="1" source="V9YfRGX8boSpPm_3hj_s-10">
          <mxGeometry width="50" height="50" relative="1" as="geometry">
            <mxPoint x="460" y="310" as="sourcePoint" />
            <mxPoint x="550" y="360" as="targetPoint" />
          </mxGeometry>
        </mxCell>
        <mxCell id="V9YfRGX8boSpPm_3hj_s-12" value="Valor Var C = 23" style="shape=parallelogram;perimeter=parallelogramPerimeter;whiteSpace=wrap;html=1;fixedSize=1;" vertex="1" parent="1">
          <mxGeometry x="470" y="360" width="160" height="60" as="geometry" />
        </mxCell>
        <mxCell id="V9YfRGX8boSpPm_3hj_s-13" value="" style="endArrow=classic;html=1;rounded=0;exitX=0.5;exitY=1;exitDx=0;exitDy=0;entryX=0.5;entryY=0;entryDx=0;entryDy=0;" edge="1" parent="1" source="V9YfRGX8boSpPm_3hj_s-12" target="V9YfRGX8boSpPm_3hj_s-4">
          <mxGeometry width="50" height="50" relative="1" as="geometry">
            <mxPoint x="460" y="310" as="sourcePoint" />
            <mxPoint x="510" y="260" as="targetPoint" />
          </mxGeometry>
        </mxCell>
      </root>
    </mxGraphModel>
  </diagram>
</mxfile>
